<mxfile host="app.diagrams.net" modified="2023-05-16T07:54:40.303Z" agent="Mozilla/5.0 (X11; Linux x86_64) AppleWebKit/537.36 (KHTML, like Gecko) Chrome/103.0.5060.114 Safari/537.36 Edg/103.0.1264.62" etag="H_mxpaCD7FxKkPiWASA_" version="21.2.9" type="github">
  <diagram id="C5RBs43oDa-KdzZeNtuy" name="Page-1">
    <mxGraphModel dx="778" dy="443" grid="1" gridSize="10" guides="1" tooltips="1" connect="1" arrows="1" fold="1" page="1" pageScale="1" pageWidth="827" pageHeight="1169" math="0" shadow="0">
      <root>
        <mxCell id="WIyWlLk6GJQsqaUBKTNV-0" />
        <mxCell id="WIyWlLk6GJQsqaUBKTNV-1" parent="WIyWlLk6GJQsqaUBKTNV-0" />
        <mxCell id="PxBTi3a1vnqMR4mRrFUP-6" style="edgeStyle=orthogonalEdgeStyle;rounded=0;orthogonalLoop=1;jettySize=auto;html=1;exitX=0.5;exitY=1;exitDx=0;exitDy=0;entryX=0.5;entryY=0;entryDx=0;entryDy=0;" edge="1" parent="WIyWlLk6GJQsqaUBKTNV-1" source="qacluNLZtoz8h89RVZuf-1" target="PxBTi3a1vnqMR4mRrFUP-4">
          <mxGeometry relative="1" as="geometry" />
        </mxCell>
        <mxCell id="qacluNLZtoz8h89RVZuf-1" value="host elf/CNFatbin/CNBin" style="rounded=1;whiteSpace=wrap;html=1;fontSize=12;glass=0;strokeWidth=1;shadow=0;" parent="WIyWlLk6GJQsqaUBKTNV-1" vertex="1">
          <mxGeometry x="170" y="265" width="140" height="30" as="geometry" />
        </mxCell>
        <mxCell id="qacluNLZtoz8h89RVZuf-32" style="edgeStyle=orthogonalEdgeStyle;rounded=0;orthogonalLoop=1;jettySize=auto;html=1;exitX=0.5;exitY=1;exitDx=0;exitDy=0;entryX=0.5;entryY=0;entryDx=0;entryDy=0;" parent="WIyWlLk6GJQsqaUBKTNV-1" source="qacluNLZtoz8h89RVZuf-8" target="qacluNLZtoz8h89RVZuf-20" edge="1">
          <mxGeometry relative="1" as="geometry" />
        </mxCell>
        <mxCell id="qacluNLZtoz8h89RVZuf-8" value="解析 CNBin" style="rounded=1;whiteSpace=wrap;html=1;fontSize=12;glass=0;strokeWidth=1;shadow=0;" parent="WIyWlLk6GJQsqaUBKTNV-1" vertex="1">
          <mxGeometry x="205" y="503" width="70" height="30" as="geometry" />
        </mxCell>
        <mxCell id="qacluNLZtoz8h89RVZuf-19" value="是" style="edgeStyle=orthogonalEdgeStyle;rounded=0;orthogonalLoop=1;jettySize=auto;html=1;exitX=0.5;exitY=1;exitDx=0;exitDy=0;entryX=0.5;entryY=0;entryDx=0;entryDy=0;" parent="WIyWlLk6GJQsqaUBKTNV-1" source="qacluNLZtoz8h89RVZuf-20" target="qacluNLZtoz8h89RVZuf-23" edge="1">
          <mxGeometry relative="1" as="geometry" />
        </mxCell>
        <mxCell id="PxBTi3a1vnqMR4mRrFUP-19" value="否" style="edgeStyle=orthogonalEdgeStyle;rounded=0;orthogonalLoop=1;jettySize=auto;html=1;exitX=1;exitY=0.5;exitDx=0;exitDy=0;entryX=0;entryY=0.5;entryDx=0;entryDy=0;" edge="1" parent="WIyWlLk6GJQsqaUBKTNV-1" source="qacluNLZtoz8h89RVZuf-20" target="PxBTi3a1vnqMR4mRrFUP-18">
          <mxGeometry relative="1" as="geometry" />
        </mxCell>
        <mxCell id="qacluNLZtoz8h89RVZuf-20" value="&lt;font style=&quot;font-size: 8px;&quot;&gt;Type == CNBin&lt;/font&gt;" style="rhombus;whiteSpace=wrap;html=1;shadow=0;fontFamily=Helvetica;fontSize=12;align=center;strokeWidth=1;spacing=6;spacingTop=-4;" parent="WIyWlLk6GJQsqaUBKTNV-1" vertex="1">
          <mxGeometry x="186.25" y="554" width="107.5" height="47" as="geometry" />
        </mxCell>
        <mxCell id="PxBTi3a1vnqMR4mRrFUP-21" style="edgeStyle=orthogonalEdgeStyle;rounded=0;orthogonalLoop=1;jettySize=auto;html=1;exitX=0.5;exitY=0;exitDx=0;exitDy=0;" edge="1" parent="WIyWlLk6GJQsqaUBKTNV-1">
          <mxGeometry relative="1" as="geometry">
            <mxPoint x="243" y="477" as="targetPoint" />
            <mxPoint x="386" y="508" as="sourcePoint" />
            <Array as="points">
              <mxPoint x="386" y="477" />
            </Array>
          </mxGeometry>
        </mxCell>
        <mxCell id="qacluNLZtoz8h89RVZuf-22" value="CNBinList++" style="rounded=1;whiteSpace=wrap;html=1;fontSize=12;glass=0;strokeWidth=1;shadow=0;" parent="WIyWlLk6GJQsqaUBKTNV-1" vertex="1">
          <mxGeometry x="345" y="508" width="80" height="23" as="geometry" />
        </mxCell>
        <mxCell id="qacluNLZtoz8h89RVZuf-23" value="END" style="rounded=1;whiteSpace=wrap;html=1;fontSize=12;glass=0;strokeWidth=1;shadow=0;" parent="WIyWlLk6GJQsqaUBKTNV-1" vertex="1">
          <mxGeometry x="200" y="669" width="80" height="30" as="geometry" />
        </mxCell>
        <mxCell id="PxBTi3a1vnqMR4mRrFUP-15" style="edgeStyle=orthogonalEdgeStyle;rounded=0;orthogonalLoop=1;jettySize=auto;html=1;exitX=1;exitY=0.5;exitDx=0;exitDy=0;entryX=0;entryY=0.5;entryDx=0;entryDy=0;" edge="1" parent="WIyWlLk6GJQsqaUBKTNV-1" source="qacluNLZtoz8h89RVZuf-11" target="qacluNLZtoz8h89RVZuf-12">
          <mxGeometry relative="1" as="geometry" />
        </mxCell>
        <mxCell id="PxBTi3a1vnqMR4mRrFUP-17" style="edgeStyle=orthogonalEdgeStyle;rounded=0;orthogonalLoop=1;jettySize=auto;html=1;exitX=0.5;exitY=1;exitDx=0;exitDy=0;" edge="1" parent="WIyWlLk6GJQsqaUBKTNV-1" source="qacluNLZtoz8h89RVZuf-11" target="qacluNLZtoz8h89RVZuf-8">
          <mxGeometry relative="1" as="geometry" />
        </mxCell>
        <mxCell id="qacluNLZtoz8h89RVZuf-11" value="getCNBinObjList&lt;br&gt;(File, Type, CNBinList)" style="rounded=1;whiteSpace=wrap;html=1;fontSize=12;glass=0;strokeWidth=1;shadow=0;container=0;" parent="WIyWlLk6GJQsqaUBKTNV-1" vertex="1">
          <mxGeometry x="174.75" y="422" width="130.5" height="34" as="geometry" />
        </mxCell>
        <mxCell id="qacluNLZtoz8h89RVZuf-12" value="libcnbin_get_cnbin_from_fatbin&lt;br&gt;(binary, size, cnbin, cnbin_size, cnbin_num)" style="rounded=1;whiteSpace=wrap;html=1;fontSize=12;glass=0;strokeWidth=1;shadow=0;container=0;" parent="WIyWlLk6GJQsqaUBKTNV-1" vertex="1">
          <mxGeometry x="334" y="411.5" width="181" height="55" as="geometry" />
        </mxCell>
        <mxCell id="PxBTi3a1vnqMR4mRrFUP-26" style="edgeStyle=orthogonalEdgeStyle;rounded=0;orthogonalLoop=1;jettySize=auto;html=1;exitX=0.25;exitY=1;exitDx=0;exitDy=0;" edge="1" parent="WIyWlLk6GJQsqaUBKTNV-1" source="qacluNLZtoz8h89RVZuf-15">
          <mxGeometry relative="1" as="geometry">
            <mxPoint x="321" y="440" as="targetPoint" />
          </mxGeometry>
        </mxCell>
        <mxCell id="qacluNLZtoz8h89RVZuf-15" value="libcnbin.so" style="rounded=1;whiteSpace=wrap;html=1;fontSize=12;glass=0;strokeWidth=1;shadow=0;fillColor=#d5e8d4;strokeColor=#82b366;container=0;" parent="WIyWlLk6GJQsqaUBKTNV-1" vertex="1">
          <mxGeometry x="305" y="374.5" width="65" height="20" as="geometry" />
        </mxCell>
        <mxCell id="PxBTi3a1vnqMR4mRrFUP-1" value="host elf&amp;nbsp; &amp;nbsp; &amp;nbsp; &amp;nbsp; &amp;nbsp; &amp;nbsp; &amp;nbsp; &amp;nbsp; &amp;nbsp; &amp;nbsp; &amp;nbsp; &amp;nbsp; &amp;nbsp; &amp;nbsp; &amp;nbsp; &amp;nbsp; &amp;nbsp; &amp;nbsp; &amp;nbsp; &amp;nbsp; &amp;nbsp; &amp;nbsp; &amp;nbsp; &amp;nbsp; &amp;nbsp; &amp;nbsp; &amp;nbsp; &amp;nbsp; &amp;nbsp; &amp;nbsp; &amp;nbsp; &amp;nbsp; &amp;nbsp;" style="ellipse;whiteSpace=wrap;html=1;" vertex="1" parent="WIyWlLk6GJQsqaUBKTNV-1">
          <mxGeometry x="370" y="262.25" width="270" height="125.5" as="geometry" />
        </mxCell>
        <mxCell id="PxBTi3a1vnqMR4mRrFUP-7" style="edgeStyle=orthogonalEdgeStyle;rounded=0;orthogonalLoop=1;jettySize=auto;html=1;exitX=0.5;exitY=1;exitDx=0;exitDy=0;entryX=0.5;entryY=0;entryDx=0;entryDy=0;" edge="1" parent="WIyWlLk6GJQsqaUBKTNV-1" source="PxBTi3a1vnqMR4mRrFUP-4" target="PxBTi3a1vnqMR4mRrFUP-5">
          <mxGeometry relative="1" as="geometry" />
        </mxCell>
        <mxCell id="PxBTi3a1vnqMR4mRrFUP-4" value="getBangBinaryType(File)" style="rounded=1;whiteSpace=wrap;html=1;fontSize=12;glass=0;strokeWidth=1;shadow=0;" vertex="1" parent="WIyWlLk6GJQsqaUBKTNV-1">
          <mxGeometry x="170" y="310" width="140" height="30" as="geometry" />
        </mxCell>
        <mxCell id="PxBTi3a1vnqMR4mRrFUP-23" value="是" style="edgeStyle=orthogonalEdgeStyle;rounded=0;orthogonalLoop=1;jettySize=auto;html=1;exitX=0;exitY=0.5;exitDx=0;exitDy=0;" edge="1" parent="WIyWlLk6GJQsqaUBKTNV-1" source="PxBTi3a1vnqMR4mRrFUP-5">
          <mxGeometry x="-0.8969" relative="1" as="geometry">
            <mxPoint x="240" y="470" as="targetPoint" />
            <Array as="points">
              <mxPoint x="150" y="376" />
              <mxPoint x="150" y="470" />
            </Array>
            <mxPoint as="offset" />
          </mxGeometry>
        </mxCell>
        <mxCell id="PxBTi3a1vnqMR4mRrFUP-24" value="否" style="edgeStyle=orthogonalEdgeStyle;rounded=0;orthogonalLoop=1;jettySize=auto;html=1;exitX=0.5;exitY=1;exitDx=0;exitDy=0;entryX=0.5;entryY=0;entryDx=0;entryDy=0;" edge="1" parent="WIyWlLk6GJQsqaUBKTNV-1" source="PxBTi3a1vnqMR4mRrFUP-5" target="qacluNLZtoz8h89RVZuf-11">
          <mxGeometry relative="1" as="geometry" />
        </mxCell>
        <mxCell id="PxBTi3a1vnqMR4mRrFUP-5" value="Type == CNBin" style="rhombus;whiteSpace=wrap;html=1;" vertex="1" parent="WIyWlLk6GJQsqaUBKTNV-1">
          <mxGeometry x="180" y="357.5" width="120" height="37" as="geometry" />
        </mxCell>
        <mxCell id="PxBTi3a1vnqMR4mRrFUP-20" value="否" style="edgeStyle=orthogonalEdgeStyle;rounded=0;orthogonalLoop=1;jettySize=auto;html=1;exitX=0.5;exitY=0;exitDx=0;exitDy=0;entryX=0.5;entryY=1;entryDx=0;entryDy=0;" edge="1" parent="WIyWlLk6GJQsqaUBKTNV-1" source="PxBTi3a1vnqMR4mRrFUP-18" target="qacluNLZtoz8h89RVZuf-22">
          <mxGeometry relative="1" as="geometry" />
        </mxCell>
        <mxCell id="PxBTi3a1vnqMR4mRrFUP-25" value="是" style="edgeStyle=orthogonalEdgeStyle;rounded=0;orthogonalLoop=1;jettySize=auto;html=1;exitX=0.5;exitY=1;exitDx=0;exitDy=0;" edge="1" parent="WIyWlLk6GJQsqaUBKTNV-1" source="PxBTi3a1vnqMR4mRrFUP-18">
          <mxGeometry x="-0.7722" relative="1" as="geometry">
            <mxPoint x="240" y="650" as="targetPoint" />
            <Array as="points">
              <mxPoint x="385" y="650" />
            </Array>
            <mxPoint as="offset" />
          </mxGeometry>
        </mxCell>
        <mxCell id="PxBTi3a1vnqMR4mRrFUP-18" value="&lt;font style=&quot;font-size: 8px;&quot;&gt;CNBinList.end()&lt;/font&gt;" style="rhombus;whiteSpace=wrap;html=1;shadow=0;fontFamily=Helvetica;fontSize=12;align=center;strokeWidth=1;spacing=6;spacingTop=-4;" vertex="1" parent="WIyWlLk6GJQsqaUBKTNV-1">
          <mxGeometry x="325" y="557.5" width="120" height="40" as="geometry" />
        </mxCell>
        <mxCell id="PxBTi3a1vnqMR4mRrFUP-27" value=".cn_fatbin&amp;nbsp; &amp;nbsp; &amp;nbsp; &amp;nbsp; &amp;nbsp; &amp;nbsp; &amp;nbsp; &amp;nbsp; &amp;nbsp; &amp;nbsp; &amp;nbsp; &amp;nbsp; &amp;nbsp; &amp;nbsp; &amp;nbsp; &amp;nbsp; &amp;nbsp; &amp;nbsp; &amp;nbsp; &amp;nbsp; &amp;nbsp; &amp;nbsp;" style="ellipse;whiteSpace=wrap;html=1;" vertex="1" parent="WIyWlLk6GJQsqaUBKTNV-1">
          <mxGeometry x="420" y="280" width="210" height="90" as="geometry" />
        </mxCell>
        <mxCell id="PxBTi3a1vnqMR4mRrFUP-28" value="" style="group" vertex="1" connectable="0" parent="WIyWlLk6GJQsqaUBKTNV-1">
          <mxGeometry x="490" y="292.75" width="120" height="68" as="geometry" />
        </mxCell>
        <mxCell id="PxBTi3a1vnqMR4mRrFUP-2" value="CNFatbin&amp;nbsp; &amp;nbsp; &amp;nbsp; &amp;nbsp; &amp;nbsp; &amp;nbsp; &amp;nbsp; &amp;nbsp; &amp;nbsp;&amp;nbsp;" style="ellipse;whiteSpace=wrap;html=1;" vertex="1" parent="PxBTi3a1vnqMR4mRrFUP-28">
          <mxGeometry width="120" height="68" as="geometry" />
        </mxCell>
        <mxCell id="PxBTi3a1vnqMR4mRrFUP-3" value="CNBin" style="ellipse;whiteSpace=wrap;html=1;" vertex="1" parent="PxBTi3a1vnqMR4mRrFUP-28">
          <mxGeometry x="60" y="19.55" width="50" height="29.75" as="geometry" />
        </mxCell>
      </root>
    </mxGraphModel>
  </diagram>
</mxfile>
